<svg xmlns="http://www.w3.org/2000/svg" version="1.1" xmlns:xlink="http://www.w3.org/1999/xlink" xmlns:svgjs="http://svgjs.dev/svgjs" viewBox="0 0 600 600"><path d="M418.7761535644531,378.4518737792969C434.0742696126302,333.9958076477051,229.44559224446616,104.52406056722005,173.22174072265625,103.08577728271484C116.99788920084634,101.64749399820964,40.50730895996094,323.92782465616864,81.43304443359375,369.8221740722656C122.35877990722656,415.7165234883626,403.47803751627606,422.9079399108887,418.7761535644531,378.4518737792969C434.0742696126302,333.9958076477051,229.44559224446616,104.52406056722005,173.22174072265625,103.08577728271484" fill="url(&quot;#ssshape-pattern3&quot;)" transform="matrix(1,0,0,1,55.27290344238281,44.322052001953125)"></path><defs><pattern id="ssshape-pattern3" width="90" height="90" viewBox="0 0 40 40" patternUnits="userSpaceOnUse">
  <rect width="100%" height="100%" fill="hsl(205, 69%, 60%)"></rect>
  <path d="M11 20L20 0L20 40zM31 20L40 0L40 40zM0-20L9 0L0 20zM0 20L9 40L0 60zM20-20L29 0L20 20zM20 20L29 40L20 60z" fill="hsl(230, 55%, 50%)"></path>
</pattern></defs></svg>